<?xml version="1.0" encoding="iso-8859-1"?>
<!-- Generator: Adobe Illustrator 19.0.0, SVG Export Plug-In . SVG Version: 6.00 Build 0)  -->
<svg version="1.1" id="Layer_1" xmlns="http://www.w3.org/2000/svg" xmlns:xlink="http://www.w3.org/1999/xlink" x="0px" y="0px"
	 viewBox="0 0 512 512" style="enable-background:new 0 0 512 512;" xml:space="preserve">
<path style="fill:#D4A8B4;" d="M268.665,324.232h-71.083c-9.71,0-17.581-7.872-17.581-17.581v-72.792
	c-21.078-2.797-37.215-21.246-36.314-43.29c0.884-21.611,18.447-39.2,40.056-40.114c15.525-0.657,29.269,7.143,37.037,19.167
	c7.463-11.552,20.443-19.205,35.219-19.205c14.776,0,27.755,7.653,35.219,19.205c7.768-12.024,21.512-19.823,37.037-19.167
	c21.61,0.914,39.174,18.503,40.056,40.114c0.901,22.044-15.234,40.493-36.314,43.29v72.792c0,9.71-7.872,17.581-17.581,17.581
	h-5.576H268.665z"/>
<g>
	<path style="fill:#3C1146;" d="M314.42,338.604H197.582c-17.619,0-31.952-14.335-31.952-31.952v-61.653
		c-22.328-8.344-37.319-30.127-36.301-55.015c1.186-28.99,24.822-52.659,53.808-53.887c13.971-0.578,27.193,3.911,37.645,12.314
		c9.843-7.916,22.183-12.366,35.219-12.366s25.375,4.45,35.219,12.366c10.45-8.405,23.654-12.895,37.645-12.314
		c28.987,1.227,52.622,24.897,53.808,53.885c1.018,24.89-13.973,46.673-36.301,55.016v61.653
		C346.372,324.269,332.037,338.604,314.42,338.604z M185.561,164.788c-0.4,0-0.806,0.009-1.21,0.026
		c-14.169,0.599-25.723,12.172-26.305,26.343c-0.585,14.342,9.665,26.574,23.843,28.455c7.146,0.947,12.484,7.039,12.484,14.247
		v72.792c0,1.769,1.44,3.208,3.208,3.208h116.838c1.768,0,3.208-1.439,3.208-3.208v-72.792c0-7.208,5.338-13.3,12.484-14.247
		c14.178-1.881,24.428-14.113,23.843-28.457c-0.581-14.169-12.134-25.742-26.305-26.341c-9.879-0.417-19.027,4.358-24.358,12.606
		c-2.649,4.099-7.193,6.572-12.071,6.572l0,0c-4.879,0-9.425-2.476-12.071-6.572c-5.111-7.91-13.763-12.632-23.146-12.632
		c-9.384,0-18.037,4.721-23.146,12.632c-2.647,4.097-7.193,6.572-12.071,6.572s-9.424-2.475-12.071-6.572
		C203.598,169.509,194.946,164.788,185.561,164.788z"/>
	<path style="fill:#3C1146;" d="M225.722,291.536c-7.936,0-14.372-6.436-14.372-14.372v-22.357c0-7.936,6.436-14.372,14.372-14.372
		c7.936,0,14.372,6.436,14.372,14.372v22.357C240.094,285.101,233.659,291.536,225.722,291.536z"/>
	<path style="fill:#3C1146;" d="M286.278,291.536c-7.936,0-14.372-6.436-14.372-14.372v-22.357c0-7.936,6.436-14.372,14.372-14.372
		s14.372,6.436,14.372,14.372v22.357C300.65,285.101,294.215,291.536,286.278,291.536z"/>
	<path style="fill:#3C1146;" d="M256,512c-2.782,0-5.561-0.806-7.977-2.417c-2.1-1.401-52-34.908-102.62-87.493
		C76.222,350.223,41.144,280.499,41.144,214.856C41.144,96.384,137.528,0,256,0s214.856,96.384,214.856,214.856
		c0,49.112-20.042,101.158-59.571,154.691c-4.714,6.384-13.711,7.739-20.099,3.024c-6.384-4.715-7.739-13.714-3.024-20.099
		c35.799-48.481,53.951-94.783,53.951-137.616C442.111,112.233,358.622,28.744,256,28.744S69.889,112.233,69.889,214.856
		c0,123.271,149.582,238.833,186.121,265.211c11.409-8.215,33.8-25.075,59.055-48.016c5.874-5.336,14.964-4.901,20.302,0.976
		c5.336,5.875,4.899,14.964-0.976,20.302c-38.026,34.542-69.111,55.384-70.415,56.255C261.562,511.195,258.781,512,256,512z"/>
</g>
<g>
</g>
<g>
</g>
<g>
</g>
<g>
</g>
<g>
</g>
<g>
</g>
<g>
</g>
<g>
</g>
<g>
</g>
<g>
</g>
<g>
</g>
<g>
</g>
<g>
</g>
<g>
</g>
<g>
</g>
</svg>
